<?xml version="1.0" encoding="UTF-8" standalone="no"?>
<svg viewBox="0 0 50 50"
 xmlns="http://www.w3.org/2000/svg" xmlns:xlink="http://www.w3.org/1999/xlink" version="1.2" baseProfile="tiny">
<title>Qt SVG Document</title>
<desc>Generated with Qt</desc>
<defs>
</defs>
<g fill="none" stroke="black" stroke-width="1" fill-rule="evenodd" stroke-linecap="square" stroke-linejoin="bevel" >

<g fill="#ed8796" fill-opacity="1" stroke="none" transform="matrix(2.69966,0,0,2.69966,-117.857,-7.14286)"
font-family="Noto Sans" font-size="10" font-weight="400" font-style="normal" 
>
<circle cx="52.9167" cy="11.9063" r="9.26042"/>
</g>

<g fill="#000000" fill-opacity="1" stroke="none" transform="matrix(2.69966,0,0,2.69966,-117.857,-7.14286)"
font-family="Noto Sans" font-size="10" font-weight="400" font-style="normal" 
opacity="0.3" >
<circle cx="52.9167" cy="11.9063" r="9.26042"/>
</g>

<g fill="#24273a" fill-opacity="1" stroke="none" transform="matrix(1.9071,1.9108,-1.92113,1.89669,-117.857,-7.14286)"
font-family="Noto Sans" font-size="10" font-weight="400" font-style="normal" 
>
<path vector-effect="none" fill-rule="evenodd" d="M38.7566,-29.085 C38.7566,-29.8237 39.3431,-30.4225 40.0665,-30.4225 L51.2351,-30.4225 C51.9585,-30.4225 52.545,-29.8237 52.545,-29.085 L52.545,-29.0022 C52.545,-28.2635 51.9585,-27.6647 51.2351,-27.6647 L40.0665,-27.6647 C39.3431,-27.6647 38.7566,-28.2635 38.7566,-29.0022 L38.7566,-29.085"/>
</g>

<g fill="#24273a" fill-opacity="1" stroke="none" transform="matrix(-1.9071,1.9108,1.92113,1.89669,-117.857,-7.14286)"
font-family="Noto Sans" font-size="10" font-weight="400" font-style="normal" 
>
<path vector-effect="none" fill-rule="evenodd" d="M-35.5993,45.8241 C-35.5993,45.0854 -35.0129,44.4866 -34.2894,44.4866 L-23.1209,44.4866 C-22.3974,44.4866 -21.811,45.0854 -21.811,45.8241 L-21.811,45.9069 C-21.811,46.6455 -22.3974,47.2444 -23.1209,47.2444 L-34.2894,47.2444 C-35.0129,47.2444 -35.5993,46.6455 -35.5993,45.9069 L-35.5993,45.8241"/>
</g>

<g fill="none" stroke="#000000" stroke-opacity="1" stroke-width="1" stroke-linecap="square" stroke-linejoin="bevel" transform="matrix(1,0,0,1,0,0)"
font-family="Noto Sans" font-size="10" font-weight="400" font-style="normal" 
>
</g>
</g>
</svg>
