<?xml version="1.0" encoding="UTF-8" standalone="no"?>
<svg viewBox="0 0 50 50"
 xmlns="http://www.w3.org/2000/svg" xmlns:xlink="http://www.w3.org/1999/xlink" version="1.2" baseProfile="tiny">
<title>Qt SVG Document</title>
<desc>Generated with Qt</desc>
<defs>
</defs>
<g fill="none" stroke="black" stroke-width="1" fill-rule="evenodd" stroke-linecap="square" stroke-linejoin="bevel" >

<g fill="#a6da95" fill-opacity="1" stroke="none" transform="matrix(0.714286,0,0,0.714286,-121.429,-795.371)"
font-family="Noto Sans" font-size="10" font-weight="400" font-style="normal" 
>
<circle cx="205" cy="1148.52" r="35"/>
</g>

<g fill="#24273a" fill-opacity="1" stroke="none" transform="matrix(0.714286,0,0,0.714286,-121.429,-795.371)"
font-family="Noto Sans" font-size="10" font-weight="400" font-style="normal" 
>
<path vector-effect="none" fill-rule="nonzero" d="M223.797,1167.72 C223.177,1168.34 221.476,1168.58 220.663,1168.51 L210.871,1168.51 C209.177,1168.35 208.129,1168.03 208.129,1163.42 L208.129,1166.16 C208.129,1165.37 208.157,1161.85 210.871,1161.85 L218.705,1161.85 L218.705,1155.2 C218.755,1153.5 220.271,1151.68 221.838,1151.68 C223.537,1151.68 225.017,1153.5 224.972,1155.2 L224.972,1165.37 C224.95,1166.19 224.58,1166.94 223.797,1167.72 "/>
</g>

<g fill="#24273a" fill-opacity="1" stroke="none" transform="matrix(0.714286,0,0,0.714286,-121.429,-795.371)"
font-family="Noto Sans" font-size="10" font-weight="400" font-style="normal" 
>
<path vector-effect="none" fill-rule="nonzero" d="M186.147,1167.72 C186.767,1168.34 188.468,1168.58 189.281,1168.51 L199.072,1168.51 C200.766,1168.35 201.814,1168.03 201.814,1163.42 L201.814,1166.16 C201.814,1165.37 201.786,1161.85 199.072,1161.85 L191.239,1161.85 L191.239,1155.2 C191.189,1153.5 189.672,1151.68 188.106,1151.68 C186.407,1151.68 184.927,1153.5 184.973,1155.2 L184.973,1165.37 C184.994,1166.19 185.364,1166.94 186.147,1167.72 "/>
</g>

<g fill="#24273a" fill-opacity="1" stroke="none" transform="matrix(0.714286,0,0,0.714286,-121.429,-795.371)"
font-family="Noto Sans" font-size="10" font-weight="400" font-style="normal" 
>
<path vector-effect="none" fill-rule="nonzero" d="M223.795,1129.32 C223.176,1128.7 221.475,1128.45 220.662,1128.53 L210.871,1128.53 C209.177,1128.69 208.129,1129.01 208.129,1133.62 L208.129,1130.88 C208.129,1131.66 208.157,1135.19 210.871,1135.19 L218.704,1135.19 L218.704,1141.84 C218.754,1143.54 220.271,1145.36 221.837,1145.36 C223.536,1145.36 225.016,1143.54 224.97,1141.84 L224.97,1131.66 C224.949,1130.85 224.579,1130.1 223.795,1129.32 "/>
</g>

<g fill="#24273a" fill-opacity="1" stroke="none" transform="matrix(0.714286,0,0,0.714286,-121.429,-795.371)"
font-family="Noto Sans" font-size="10" font-weight="400" font-style="normal" 
>
<path vector-effect="none" fill-rule="nonzero" d="M186.147,1129.32 C186.767,1128.7 188.468,1128.45 189.281,1128.53 L199.072,1128.53 C200.766,1128.69 201.814,1129.01 201.814,1133.62 L201.814,1130.88 C201.814,1131.67 201.786,1135.19 199.072,1135.19 L191.239,1135.19 L191.239,1141.84 C191.189,1143.54 189.672,1145.36 188.106,1145.36 C186.407,1145.36 184.927,1143.54 184.973,1141.84 L184.973,1131.67 C184.994,1130.85 185.364,1130.1 186.147,1129.32 "/>
</g>

<g fill="#000000" fill-opacity="1" stroke="none" transform="matrix(0.714286,0,0,0.714286,-121.429,-795.371)"
font-family="Noto Sans" font-size="10" font-weight="400" font-style="normal" 
opacity="0.3" >
<circle cx="205" cy="1148.52" r="35"/>
</g>

<g fill="none" stroke="#000000" stroke-opacity="1" stroke-width="1" stroke-linecap="square" stroke-linejoin="bevel" transform="matrix(1,0,0,1,0,0)"
font-family="Noto Sans" font-size="10" font-weight="400" font-style="normal" 
>
</g>
</g>
</svg>
